<svg viewBox="0 2 23 20" xmlns="http://www.w3.org/2000/svg">
<path d="M18.2957 9.73424C18.0092 9.73424 17.7344 9.84742 17.5318 10.0489C17.3292 10.2503 17.2153 10.5235 17.2153 10.8084V13.374H2.18815V2.14393H6.89363C7.04316 2.15749 7.19389 2.13991 7.3362 2.09231C7.47852 2.04471 7.60929 1.96814 7.72018 1.86749C7.83107 1.76683 7.91963 1.6443 7.98023 1.50771C8.04083 1.37112 8.07213 1.22347 8.07213 1.07419C8.07213 0.924897 8.04083 0.777248 7.98023 0.640658C7.91963 0.504068 7.83107 0.381536 7.72018 0.280881C7.60929 0.180225 7.47852 0.103657 7.3362 0.0560597C7.19389 0.00846234 7.04316 -0.00911861 6.89363 0.00443902H1.08098C0.79444 0.00443902 0.51964 0.117612 0.317028 0.31906C0.114416 0.520509 0.000590502 0.793732 0.000590502 1.07862V14.395C-0.00420074 14.539 0.0202026 14.6825 0.0723479 14.817C0.124493 14.9514 0.203314 15.0741 0.304119 15.1776C0.404923 15.2811 0.525649 15.3634 0.659111 15.4196C0.792573 15.4758 0.936042 15.5047 1.08098 15.5047H18.2957C18.5823 15.5047 18.857 15.3915 19.0597 15.19C19.2623 14.9886 19.3761 14.7154 19.3761 14.4305V10.8084C19.3761 10.5235 19.2623 10.2503 19.0597 10.0489C18.857 9.84742 18.5823 9.73424 18.2957 9.73424Z" transform="translate(0 4.49534)" stroke-width="0"/>
<path d="M16.5907 7.10978L9.65303 0.211917C9.55311 0.111024 9.42515 0.0421285 9.28556 0.0140771C9.14597 -0.0139743 9.00114 9.93302e-05 8.86965 0.0544901C8.73817 0.108881 8.62604 0.201106 8.54766 0.319324C8.46928 0.437541 8.42823 0.576354 8.42978 0.717938V4.86376C6.39402 4.95253 0.286713 5.83141 0.000990809 13.0755C-0.00682203 13.2229 0.031732 13.369 0.111295 13.4936C0.190859 13.6182 0.30748 13.715 0.44495 13.7707C0.58242 13.8263 0.733912 13.838 0.878371 13.8041C1.02283 13.7702 1.15308 13.6924 1.25102 13.5815C2.09512 12.7367 3.10612 12.0749 4.22026 11.6379C5.33441 11.201 6.52754 10.9982 7.72441 11.0425H8.42978V14.5403C8.42823 14.6819 8.46928 14.8207 8.54766 14.9389C8.62604 15.0571 8.73817 15.1494 8.86965 15.2037C9.00114 15.2581 9.14597 15.2722 9.28556 15.2442C9.42515 15.2161 9.55311 15.1472 9.65303 15.0463L16.5996 8.13958C16.6671 8.07349 16.7207 7.99472 16.7573 7.90785C16.7939 7.82098 16.8127 7.72774 16.8127 7.63356C16.8127 7.53938 16.7939 7.44614 16.7573 7.35926C16.7207 7.27239 16.6671 7.19362 16.5996 7.12754L16.5907 7.10978ZM9.86732 12.8181V10.3856C9.86746 10.2172 9.80737 10.0541 9.69778 9.92567C9.5882 9.79721 9.43626 9.71165 9.26909 9.68427C8.75731 9.61402 8.24102 9.58138 7.72441 9.58662C5.58054 9.55038 3.47395 10.1466 1.67068 11.3C2.78678 6.65703 7.34047 6.26641 8.81372 6.26641H9.08159C9.17943 6.27067 9.27716 6.2556 9.36911 6.22208C9.46107 6.18856 9.54543 6.13724 9.61731 6.07111C9.68839 6.00349 9.74485 5.92216 9.78323 5.8321C9.82161 5.74204 9.84111 5.64514 9.84053 5.54733V2.43131L15.0728 7.6158L9.86732 12.8181Z" transform="translate(6.18726)" stroke-width="0"/>
</svg>
