<svg width="16" height="16" viewBox="-2 -2 21 21" xmlns="http://www.w3.org/2000/svg">
<path d="M16.66 3.28667L13.0333 0.226667C12.8633 0.0944444 12.6367 0 12.41 0H12.3722H4.55222H0.944445C0.415556 0 -1.80138e-08 0.415556 -1.80138e-08 0.944444V16.0556C-1.80138e-08 16.5844 0.415556 17 0.944445 17H16.0556C16.5844 17 17 16.5844 17 16.0556V4.02333C17 3.74 16.8678 3.47556 16.66 3.28667ZM11.4467 1.88889V6.76222H5.49667V1.88889H11.4467ZM15.1111 15.1111H1.88889V1.88889H3.60778V7.70667C3.60778 8.23556 4.02333 8.65111 4.55222 8.65111H12.3911C12.92 8.65111 13.3356 8.23556 13.3356 7.70667V2.94667L15.1111 4.43889V15.1111Z" stroke-width="0"/>
<path d="M0.85 3.17333C1.32222 3.17333 1.7 2.79556 1.7 2.32333V0.85C1.7 0.377778 1.32222 7.20554e-08 0.85 7.20554e-08C0.377778 7.20554e-08 -1.44111e-07 0.377778 -1.44111e-07 0.85V2.32333C-1.44111e-07 2.79556 0.396666 3.17333 0.85 3.17333Z" stroke-width="0" transform="translate(8.82104 2.75778)"/>
</svg>
