<svg width="26" height="26" viewBox="0 0 22 22" fill="none" xmlns="http://www.w3.org/2000/svg">
<path d="M13.0624 22H8.93738V18.9841C8.18644 18.7917 7.47487 18.4981 6.8112 18.1053L4.18 20.7362L1.2628 17.8198L3.894 15.1884C3.50191 14.5242 3.20784 13.8124 3.01547 13.0625H-1.49197e-08V8.93752H3.01547C3.20784 8.18733 3.50191 7.47576 3.894 6.81161L1.77784 4.6945L4.69431 1.77807L6.8112 3.89469C7.47511 3.50261 8.18669 3.20854 8.93738 3.01617V1.30546e-08H13.0624V3.01592C13.8123 3.20756 14.5239 3.50163 15.1881 3.89445L17.305 1.77782L20.2222 4.69426L18.106 6.81088C18.4981 7.47552 18.7922 8.18709 18.9845 8.93752H22V13.0625H18.9845C18.7922 13.8124 18.4981 14.524 18.1053 15.1884L20.7365 17.8198L17.82 20.7372L15.1881 18.1056C14.5242 18.4984 13.8123 18.7927 13.0624 18.9841V22V22ZM10.3124 20.625H11.6874V17.8587L12.2506 17.755C13.2078 17.5793 14.0969 17.2116 14.8935 16.6626L15.3648 16.3375L17.8198 18.7924L18.7919 17.8198L16.3377 15.3661L16.6623 14.8948C17.2116 14.0965 17.5795 13.2072 17.7557 12.2502L17.8594 11.6872H20.6248V10.3123H17.8594L17.7557 9.74931C17.5795 8.79159 17.2118 7.90158 16.663 7.1047L16.3387 6.63342L18.2776 4.69401L17.3047 3.72187L15.3648 5.66152L14.8935 5.33641C14.0969 4.78764 13.2078 4.42 12.2506 4.244L11.6874 4.1406V1.37498H10.3124V4.1406L9.74942 4.24424C8.7912 4.42097 7.90142 4.78837 7.10551 5.3369L6.63422 5.66152L4.69431 3.72187L3.72216 4.69401L5.66158 6.63439L5.33647 7.10568C4.78793 7.90182 4.42078 8.7911 4.24404 9.74931L4.1404 10.3123H1.375V11.6872H4.1404L4.24404 12.2502C4.42078 13.2087 4.78842 14.0982 5.33647 14.8938L5.66158 15.3651L3.20736 17.8198L4.18 18.7922L6.63422 16.3382L7.10551 16.6633C7.90118 17.2114 8.79047 17.579 9.74942 17.7558L10.3124 17.8594V20.625V20.625ZM11 15.1251C8.7252 15.1251 6.875 13.2749 6.875 11.0001C6.875 8.72535 8.7252 6.87517 11 6.87517C13.2748 6.87517 15.125 8.72535 15.125 11.0001C15.125 13.2749 13.2746 15.1251 11 15.1251ZM11 8.24991C9.48371 8.24991 8.25 9.48361 8.25 10.9999C8.25 12.5164 9.48371 13.7498 11 13.7498C12.5163 13.7498 13.75 12.5161 13.75 10.9999C13.75 9.48361 12.5163 8.24991 11 8.24991Z"/>
</svg>
